<svg width="204" height="47" viewBox="0 0 204 47" fill="none" xmlns="http://www.w3.org/2000/svg">
<path d="M17 47H169C159.468 41.1582 156 29.5 156 24.5C156 19.5 152.5 -7.62939e-06 143 0H17C8.50012 0 0 14 0 22.5C0 38 8.50012 47 17 47Z" fill="#EE6C4D"/>
<circle cx="182" cy="22" r="22" fill="#49DD5F"/>
<path d="M30.0854 20L33.8294 11.6H35.7494L39.5054 20H37.4654L34.3934 12.584H35.1614L32.0774 20H30.0854ZM31.9574 18.2L32.4734 16.724H36.7934L37.3214 18.2H31.9574ZM44.3157 20.144C43.6517 20.144 43.0397 20.04 42.4797 19.832C41.9277 19.616 41.4437 19.312 41.0277 18.92C40.6197 18.528 40.2997 18.068 40.0677 17.54C39.8437 17.012 39.7317 16.432 39.7317 15.8C39.7317 15.168 39.8437 14.588 40.0677 14.06C40.2997 13.532 40.6237 13.072 41.0397 12.68C41.4557 12.288 41.9437 11.988 42.5037 11.78C43.0637 11.564 43.6797 11.456 44.3517 11.456C45.0957 11.456 45.7637 11.58 46.3557 11.828C46.9557 12.076 47.4597 12.436 47.8677 12.908L46.6197 14.06C46.3157 13.74 45.9837 13.504 45.6237 13.352C45.2637 13.192 44.8717 13.112 44.4477 13.112C44.0397 13.112 43.6677 13.176 43.3317 13.304C42.9957 13.432 42.7037 13.616 42.4557 13.856C42.2157 14.096 42.0277 14.38 41.8917 14.708C41.7637 15.036 41.6997 15.4 41.6997 15.8C41.6997 16.192 41.7637 16.552 41.8917 16.88C42.0277 17.208 42.2157 17.496 42.4557 17.744C42.7037 17.984 42.9917 18.168 43.3197 18.296C43.6557 18.424 44.0237 18.488 44.4237 18.488C44.8077 18.488 45.1797 18.428 45.5397 18.308C45.9077 18.18 46.2637 17.968 46.6077 17.672L47.7117 19.076C47.2557 19.42 46.7237 19.684 46.1157 19.868C45.5157 20.052 44.9157 20.144 44.3157 20.144ZM45.9357 18.824V15.668H47.7117V19.076L45.9357 18.824ZM51.3055 14.984H55.3495V16.496H51.3055V14.984ZM51.4495 18.44H56.0215V20H49.5175V11.6H55.8655V13.16H51.4495V18.44ZM57.5683 20V11.6H59.1763L64.1323 17.648H63.3523V11.6H65.2723V20H63.6763L58.7083 13.952H59.4883V20H57.5683ZM67.2597 20V11.6H71.0757C71.9877 11.6 72.7917 11.776 73.4877 12.128C74.1837 12.472 74.7277 12.956 75.1197 13.58C75.5117 14.204 75.7077 14.944 75.7077 15.8C75.7077 16.648 75.5117 17.388 75.1197 18.02C74.7277 18.644 74.1837 19.132 73.4877 19.484C72.7917 19.828 71.9877 20 71.0757 20H67.2597ZM69.2037 18.404H70.9797C71.5397 18.404 72.0237 18.3 72.4317 18.092C72.8477 17.876 73.1677 17.572 73.3917 17.18C73.6237 16.788 73.7397 16.328 73.7397 15.8C73.7397 15.264 73.6237 14.804 73.3917 14.42C73.1677 14.028 72.8477 13.728 72.4317 13.52C72.0237 13.304 71.5397 13.196 70.9797 13.196H69.2037V18.404ZM75.9525 20L79.6965 11.6H81.6165L85.3725 20H83.3325L80.2605 12.584H81.0285L77.9445 20H75.9525ZM77.8245 18.2L78.3405 16.724H82.6605L83.1885 18.2H77.8245ZM86.244 20V11.6H89.88C90.632 11.6 91.28 11.724 91.824 11.972C92.368 12.212 92.788 12.56 93.084 13.016C93.38 13.472 93.528 14.016 93.528 14.648C93.528 15.272 93.38 15.812 93.084 16.268C92.788 16.716 92.368 17.06 91.824 17.3C91.28 17.54 90.632 17.66 89.88 17.66H87.324L88.188 16.808V20H86.244ZM91.584 20L89.484 16.952H91.56L93.684 20H91.584ZM88.188 17.024L87.324 16.112H89.772C90.372 16.112 90.82 15.984 91.116 15.728C91.412 15.464 91.56 15.104 91.56 14.648C91.56 14.184 91.412 13.824 91.116 13.568C90.82 13.312 90.372 13.184 89.772 13.184H87.324L88.188 12.26V17.024ZM102.199 20.144C101.007 20.144 100.075 19.812 99.4027 19.148C98.7307 18.484 98.3947 17.536 98.3947 16.304V11.6H100.339V16.232C100.339 17.032 100.503 17.608 100.831 17.96C101.159 18.312 101.619 18.488 102.211 18.488C102.803 18.488 103.263 18.312 103.591 17.96C103.919 17.608 104.083 17.032 104.083 16.232V11.6H106.003V16.304C106.003 17.536 105.667 18.484 104.995 19.148C104.323 19.812 103.391 20.144 102.199 20.144ZM107.924 20V11.6H109.532L114.488 17.648H113.708V11.6H115.628V20H114.032L109.064 13.952H109.844V20H107.924ZM116.511 20L120.255 11.6H122.175L125.931 20H123.891L120.819 12.584H121.587L118.503 20H116.511ZM118.383 18.2L118.899 16.724H123.219L123.747 18.2H118.383ZM61.2719 35L57.6479 26.6H59.7479L62.9159 34.04H61.6799L64.8959 26.6H66.8279L63.1919 35H61.2719ZM67.5292 35V26.6H69.4732V35H67.5292ZM74.2267 35.144C73.5547 35.144 72.9107 35.056 72.2947 34.88C71.6787 34.696 71.1827 34.46 70.8067 34.172L71.4667 32.708C71.8267 32.964 72.2507 33.176 72.7387 33.344C73.2347 33.504 73.7347 33.584 74.2387 33.584C74.6227 33.584 74.9307 33.548 75.1627 33.476C75.4027 33.396 75.5787 33.288 75.6907 33.152C75.8027 33.016 75.8587 32.86 75.8587 32.684C75.8587 32.46 75.7707 32.284 75.5947 32.156C75.4187 32.02 75.1867 31.912 74.8987 31.832C74.6107 31.744 74.2907 31.664 73.9387 31.592C73.5947 31.512 73.2467 31.416 72.8947 31.304C72.5507 31.192 72.2347 31.048 71.9467 30.872C71.6587 30.696 71.4227 30.464 71.2387 30.176C71.0627 29.888 70.9747 29.52 70.9747 29.072C70.9747 28.592 71.1027 28.156 71.3587 27.764C71.6227 27.364 72.0147 27.048 72.5347 26.816C73.0627 26.576 73.7227 26.456 74.5147 26.456C75.0427 26.456 75.5627 26.52 76.0747 26.648C76.5867 26.768 77.0387 26.952 77.4307 27.2L76.8307 28.676C76.4387 28.452 76.0467 28.288 75.6547 28.184C75.2627 28.072 74.8787 28.016 74.5027 28.016C74.1267 28.016 73.8187 28.06 73.5787 28.148C73.3387 28.236 73.1667 28.352 73.0627 28.496C72.9587 28.632 72.9067 28.792 72.9067 28.976C72.9067 29.192 72.9947 29.368 73.1707 29.504C73.3467 29.632 73.5787 29.736 73.8667 29.816C74.1547 29.896 74.4707 29.976 74.8147 30.056C75.1667 30.136 75.5147 30.228 75.8587 30.332C76.2107 30.436 76.5307 30.576 76.8187 30.752C77.1067 30.928 77.3387 31.16 77.5147 31.448C77.6987 31.736 77.7907 32.1 77.7907 32.54C77.7907 33.012 77.6587 33.444 77.3947 33.836C77.1307 34.228 76.7347 34.544 76.2067 34.784C75.6867 35.024 75.0267 35.144 74.2267 35.144ZM79.119 35V26.6H81.063V35H79.119ZM84.7965 35V28.184H82.1085V26.6H89.4285V28.184H86.7405V35H84.7965ZM88.9486 35L92.6926 26.6H94.6126L98.3686 35H96.3286L93.2566 27.584H94.0246L90.9406 35H88.9486ZM90.8206 33.2L91.3366 31.724H95.6566L96.1846 33.2H90.8206Z" fill="#F8F9FF"/>
<path d="M182 10C175.379 10 170 15.3789 170 22C170 24.1282 170.584 26.1144 171.557 27.8482L170.019 33.3376C169.995 33.4255 169.994 33.5182 170.016 33.6066C170.039 33.695 170.084 33.776 170.147 33.8415C170.211 33.907 170.29 33.9546 170.378 33.9798C170.466 34.0049 170.559 34.0066 170.647 33.9847L176.371 32.5662C178.053 33.4641 179.961 34 182 34C188.621 34 194 28.6211 194 22C194 15.3789 188.621 10 182 10ZM182 11.0435C188.057 11.0435 192.957 15.9429 192.957 22C192.957 28.0571 188.057 32.9565 182 32.9565C180.058 32.9565 178.239 32.4502 176.658 31.5656C176.543 31.5009 176.407 31.4827 176.278 31.5146L171.266 32.7568L172.61 27.9613C172.629 27.8935 172.634 27.8225 172.625 27.7527C172.616 27.6828 172.593 27.6154 172.558 27.5547C171.597 25.9254 171.043 24.0296 171.043 22C171.043 15.9429 175.943 11.0435 182 11.0435ZM177.64 15.7391C177.305 15.7391 176.828 15.8636 176.435 16.2863C176.199 16.5403 175.217 17.4971 175.217 19.1793C175.217 20.9332 176.434 22.4465 176.581 22.641H176.582V22.642C176.568 22.6236 176.769 22.9142 177.036 23.2626C177.304 23.6109 177.679 24.0685 178.149 24.5639C179.09 25.5546 180.413 26.6995 182.055 27.3998C182.811 27.7218 183.408 27.9162 183.86 28.0581C184.697 28.3211 185.46 28.2811 186.033 28.1967C186.462 28.1335 186.934 27.9275 187.401 27.6321C187.868 27.3367 188.325 26.9694 188.527 26.4113C188.671 26.0113 188.745 25.6415 188.771 25.3373C188.785 25.1852 188.786 25.0509 188.776 24.9266C188.767 24.8023 188.777 24.7071 188.661 24.517C188.418 24.1182 188.143 24.1077 187.856 23.9657C187.697 23.8868 187.243 23.665 186.787 23.448C186.332 23.2313 185.939 23.0393 185.696 22.9528C185.543 22.8976 185.356 22.8183 185.086 22.8488C184.816 22.8794 184.549 23.0742 184.394 23.3043C184.247 23.5225 183.654 24.2217 183.474 24.4273C183.471 24.4258 183.487 24.4331 183.415 24.3978C183.192 24.2872 182.919 24.1932 182.515 23.98C182.11 23.7667 181.605 23.4518 181.051 22.964V22.963C180.228 22.2379 179.651 21.3275 179.469 21.0217C179.481 21.0072 179.467 21.0248 179.493 20.9993L179.494 20.9983C179.68 20.8151 179.845 20.5963 179.984 20.4358C180.182 20.2083 180.269 20.0077 180.363 19.8203C180.552 19.4468 180.447 19.0359 180.338 18.8196V18.8186C180.345 18.8336 180.279 18.687 180.208 18.518C180.136 18.3485 180.044 18.1287 179.947 17.8944C179.751 17.4257 179.533 16.9 179.404 16.5921V16.591C179.251 16.2284 179.044 15.9671 178.774 15.841C178.504 15.715 178.265 15.7508 178.255 15.7503H178.254C178.061 15.7414 177.85 15.7391 177.64 15.7391ZM177.64 16.7826C177.841 16.7826 178.039 16.7851 178.205 16.7928C178.376 16.8013 178.365 16.802 178.333 16.7867C178.299 16.7711 178.344 16.7661 178.442 16.9966C178.569 17.2981 178.788 17.8257 178.984 18.2959C179.082 18.5309 179.173 18.7516 179.247 18.9246C179.32 19.0976 179.36 19.1942 179.406 19.2863V19.2874L179.407 19.2884C179.452 19.3775 179.448 19.3204 179.432 19.3516C179.322 19.5701 179.307 19.6237 179.196 19.752C179.026 19.9474 178.853 20.1653 178.762 20.2554C178.681 20.3341 178.537 20.4567 178.447 20.6967C178.356 20.937 178.398 21.2667 178.543 21.5129C178.737 21.8407 179.373 22.8762 180.361 23.7466C180.984 24.2955 181.564 24.6587 182.028 24.9032C182.491 25.1476 182.868 25.2904 182.953 25.3322C183.153 25.4315 183.373 25.5085 183.627 25.4779C183.882 25.4473 184.102 25.2927 184.242 25.1345L184.243 25.1335C184.429 24.9224 184.982 24.2908 185.248 23.9015C185.259 23.9055 185.255 23.9024 185.343 23.9341V23.9351H185.344C185.385 23.9495 185.889 24.1753 186.339 24.3896C186.789 24.6039 187.245 24.8267 187.394 24.9001C187.608 25.0061 187.709 25.0751 187.735 25.0754C187.737 25.1213 187.739 25.1711 187.732 25.2466C187.714 25.4562 187.658 25.7462 187.546 26.0567C187.491 26.2087 187.204 26.5223 186.843 26.7507C186.482 26.9791 186.043 27.1404 185.88 27.1644C185.391 27.2365 184.81 27.2628 184.173 27.0625C183.73 26.9237 183.179 26.744 182.465 26.4399C181.016 25.8222 179.786 24.7712 178.906 23.8454C178.467 23.3826 178.114 22.9517 177.864 22.6257C177.614 22.3003 177.504 22.131 177.413 22.0112L177.412 22.0102C177.251 21.7964 176.261 20.4196 176.261 19.1793C176.261 17.8668 176.871 17.3521 177.2 16.9966C177.374 16.81 177.563 16.7826 177.64 16.7826Z" fill="white"/>
</svg>
